<svg width="167" height="57" viewBox="0 0 167 57" fill="none" xmlns="http://www.w3.org/2000/svg">
<g clip-path="url(#clip0_1274_8811)">
<path d="M156.312 0.5H10.688C4.78518 0.5 0 5.27563 0 11.1667V45.8333C0 51.7244 4.78518 56.5 10.688 56.5H156.312C162.215 56.5 167 51.7244 167 45.8333V11.1667C167 5.27563 162.215 0.5 156.312 0.5Z" fill="black"/>
<path d="M59.7141 30.256L57.8384 35.5773H61.6246L59.7662 30.256H59.7141ZM53.8438 40.5L58.6026 28.124H60.9125L65.6887 40.5H63.3614L62.1978 37.224H57.2479L56.0842 40.5H53.8438ZM73.5563 36.028C73.5563 34.3987 72.7053 32.856 71.0727 32.856C69.4053 32.856 68.5543 34.1213 68.5543 36.028C68.5543 37.8307 69.4748 39.1827 71.0727 39.1827C72.8789 39.1827 73.5563 37.588 73.5563 36.028ZM66.6438 43.8107V31.5387H68.5196V32.752H68.5543C69.1101 31.7293 70.1869 31.296 71.3332 31.296C74.1642 31.296 75.5363 33.4453 75.5363 36.0627C75.5363 38.472 74.3205 40.7427 71.6632 40.7427C70.5169 40.7427 69.2838 40.3267 68.6585 39.3387H68.6238V43.8107H66.6438ZM84.1738 36.028C84.1738 34.3987 83.3227 32.856 81.6901 32.856C80.0228 32.856 79.1718 34.1213 79.1718 36.028C79.1718 37.8307 80.0923 39.1827 81.6901 39.1827C83.4964 39.1827 84.1738 37.588 84.1738 36.028ZM77.2613 43.8107V31.5387H79.137V32.752H79.1718C79.7275 31.7293 80.8044 31.296 81.9506 31.296C84.7816 31.296 86.1537 33.4453 86.1537 36.0627C86.1537 38.472 84.9379 40.7427 82.2806 40.7427C81.1344 40.7427 79.9012 40.3267 79.276 39.3387H79.2412V43.8107H77.2613ZM92.1918 36.3747H94.3628C94.3628 38.2813 95.7696 39.0267 97.5064 39.0267C99.4169 39.0267 100.129 38.0907 100.129 37.1547C100.129 36.2013 99.6079 35.82 99.1042 35.6293C98.2358 35.3 97.1069 35.0747 95.4048 34.6067C93.2859 34.0347 92.6607 32.752 92.6607 31.4693C92.6607 28.9907 94.9533 27.8293 97.1937 27.8293C99.7816 27.8293 101.953 29.1987 101.953 31.7813H99.7816C99.6774 30.1867 98.6006 29.5973 97.1069 29.5973C96.0996 29.5973 94.8317 29.9613 94.8317 31.2093C94.8317 32.076 95.4222 32.5613 96.308 32.804C96.499 32.856 99.2432 33.5667 99.8858 33.7573C101.518 34.2427 102.3 35.6293 102.3 36.912C102.3 39.6853 99.8337 40.7947 97.3674 40.7947C94.5364 40.7947 92.2439 39.4427 92.1918 36.3747ZM103.02 33.012V31.5387H104.513V28.852H106.493V31.5387H108.282V33.012H106.493V37.796C106.493 38.6107 106.563 39.0267 107.448 39.0267C107.726 39.0267 108.004 39.0267 108.282 38.9573V40.4827C107.848 40.5173 107.431 40.5867 106.997 40.5867C104.93 40.5867 104.548 39.7893 104.513 38.2987V33.012H103.02ZM113.823 39.1827C115.594 39.1827 116.376 37.5707 116.376 36.0107C116.376 34.468 115.594 32.856 113.823 32.856C112.051 32.856 111.269 34.468 111.269 36.0107C111.269 37.5707 112.051 39.1827 113.823 39.1827ZM113.823 40.7427C110.939 40.7427 109.289 38.7667 109.289 36.0107C109.289 33.272 110.939 31.296 113.823 31.296C116.706 31.296 118.356 33.272 118.356 36.0107C118.356 38.7667 116.706 40.7427 113.823 40.7427ZM120.002 40.5V31.5387H121.86V33.272H121.895C122.121 32.3187 123.302 31.296 124.517 31.296C124.969 31.296 125.09 31.3307 125.264 31.348V33.2547C124.986 33.22 124.691 33.168 124.413 33.168C123.058 33.168 121.982 34.26 121.982 36.236V40.5H120.002ZM133.948 36.5307H127.348C127.348 37.9347 128.112 39.1827 129.762 39.1827C130.909 39.1827 131.603 38.68 131.951 37.692H133.826C133.392 39.6507 131.725 40.7427 129.762 40.7427C126.949 40.7427 125.368 38.784 125.368 36.028C125.368 33.48 127.035 31.296 129.71 31.296C132.541 31.296 134.278 33.844 133.948 36.5307ZM127.348 35.2307H131.968C131.898 33.9827 131.047 32.856 129.71 32.856C128.338 32.856 127.4 33.896 127.348 35.2307Z" fill="white"/>
<path d="M55.3321 13.4547V18.2147H56.4824C58.3154 18.2147 58.7082 17.1694 58.7082 15.8347C58.7082 14.5 58.3154 13.4547 56.4824 13.4547H55.3321ZM54.1631 19.1667V12.5027H56.9313C58.9887 12.5027 59.8772 13.996 59.8772 15.8347C59.8772 17.6734 58.9887 19.1667 56.9313 19.1667H54.1631ZM62.9789 18.4574C63.9329 18.4574 64.3537 17.5894 64.3537 16.7494C64.3537 15.9187 63.9329 15.0507 62.9789 15.0507C62.025 15.0507 61.6042 15.9187 61.6042 16.7494C61.6042 17.5894 62.025 18.4574 62.9789 18.4574ZM62.9789 19.2974C61.4265 19.2974 60.5381 18.2334 60.5381 16.7494C60.5381 15.2747 61.4265 14.2107 62.9789 14.2107C64.5314 14.2107 65.4198 15.2747 65.4198 16.7494C65.4198 18.2334 64.5314 19.2974 62.9789 19.2974ZM67.3629 19.1667L65.8666 14.3414H66.9982L67.9427 17.944H67.9614L68.8686 14.3414H69.9441L70.8138 17.944H70.8325L71.8144 14.3414H72.8993L71.3843 19.1667H70.2901L69.3923 15.5827H69.3736L68.4851 19.1667H67.3629ZM73.5851 19.1667V14.3414H74.5951V15.0507L74.6138 15.0694C74.9317 14.5374 75.4835 14.2107 76.1194 14.2107C77.1669 14.2107 77.8309 14.7707 77.8309 15.8534V19.1667H76.7647V16.1334C76.746 15.3774 76.4468 15.0507 75.8202 15.0507C75.1094 15.0507 74.6512 15.6107 74.6512 16.32V19.1667H73.5851ZM78.9832 19.1667V12.5027H80.0493V19.1667H78.9832ZM83.4274 18.4574C84.3813 18.4574 84.8021 17.5894 84.8021 16.7494C84.8021 15.9187 84.3813 15.0507 83.4274 15.0507C82.4735 15.0507 82.0526 15.9187 82.0526 16.7494C82.0526 17.5894 82.4735 18.4574 83.4274 18.4574ZM83.4274 19.2974C81.8749 19.2974 80.9865 18.2334 80.9865 16.7494C80.9865 15.2747 81.8749 14.2107 83.4274 14.2107C84.9798 14.2107 85.8682 15.2747 85.8682 16.7494C85.8682 18.2334 84.9798 19.2974 83.4274 19.2974ZM89.7378 17.5427V16.7494C89.4105 16.964 88.8961 16.9547 88.4286 17.0387C87.9703 17.1134 87.5588 17.2814 87.5588 17.8414C87.5588 18.3174 88.1667 18.4574 88.5408 18.4574C89.0084 18.4574 89.7378 18.2147 89.7378 17.5427ZM90.804 15.6107V18.0934C90.804 18.3547 90.8601 18.4574 91.0565 18.4574C91.1219 18.4574 91.2061 18.4574 91.3183 18.4387V19.176C91.1593 19.232 90.8227 19.2974 90.645 19.2974C90.2148 19.2974 89.9062 19.148 89.822 18.7094C89.4012 19.12 88.7185 19.2974 88.148 19.2974C87.2783 19.2974 86.4927 18.8307 86.4927 17.888C86.4927 16.684 87.4559 16.488 88.3537 16.3854C89.1206 16.2454 89.8033 16.3294 89.8033 15.704C89.8033 15.1534 89.2328 15.0507 88.8026 15.0507C88.2041 15.0507 87.7833 15.2934 87.7365 15.816H86.6704C86.7452 14.5747 87.802 14.2107 88.8681 14.2107C89.8126 14.2107 90.804 14.5934 90.804 15.6107ZM92.7835 16.8054C92.7835 17.636 93.195 18.4574 94.1208 18.4574C95.0747 18.4574 95.4769 17.5894 95.4769 16.7494C95.4769 15.6854 94.9625 15.0507 94.1395 15.0507C93.1389 15.0507 92.7835 15.9374 92.7835 16.8054ZM96.5056 12.5027V19.1667H95.4956V18.5134H95.4769C95.1963 19.064 94.5884 19.2974 93.9806 19.2974C92.4562 19.2974 91.7174 18.168 91.7174 16.7214C91.7174 14.976 92.7555 14.2107 93.8122 14.2107C94.4201 14.2107 95.0934 14.4347 95.4208 14.9667H95.4395V12.5027H96.5056ZM102.488 18.4574C103.441 18.4574 103.862 17.5894 103.862 16.7494C103.862 15.9187 103.441 15.0507 102.488 15.0507C101.534 15.0507 101.113 15.9187 101.113 16.7494C101.113 17.5894 101.534 18.4574 102.488 18.4574ZM102.488 19.2974C100.935 19.2974 100.047 18.2334 100.047 16.7494C100.047 15.2747 100.935 14.2107 102.488 14.2107C104.04 14.2107 104.928 15.2747 104.928 16.7494C104.928 18.2334 104.04 19.2974 102.488 19.2974ZM105.815 19.1667V14.3414H106.825V15.0507L106.843 15.0694C107.161 14.5374 107.713 14.2107 108.349 14.2107C109.397 14.2107 110.061 14.7707 110.061 15.8534V19.1667H108.994V16.1334C108.976 15.3774 108.676 15.0507 108.05 15.0507C107.339 15.0507 106.881 15.6107 106.881 16.32V19.1667H105.815ZM113.301 15.1347V14.3414H114.106V12.8947H115.172V14.3414H116.135V15.1347H115.172V17.7107C115.172 18.1494 115.209 18.3734 115.686 18.3734C115.836 18.3734 115.985 18.3734 116.135 18.336V19.1574C115.901 19.176 115.677 19.2134 115.443 19.2134C114.33 19.2134 114.124 18.784 114.106 17.9814V15.1347H113.301ZM116.902 19.1667V12.5027H117.968V14.976H117.987C118.249 14.5374 118.8 14.2107 119.436 14.2107C120.484 14.2107 121.148 14.7707 121.148 15.8534V19.1667H120.082V16.1334C120.063 15.3774 119.764 15.0507 119.137 15.0507C118.426 15.0507 117.968 15.6107 117.968 16.32V19.1667H116.902ZM126.658 17.0294H123.104C123.104 17.7854 123.516 18.4574 124.404 18.4574C125.022 18.4574 125.396 18.1867 125.583 17.6547H126.593C126.359 18.7094 125.461 19.2974 124.404 19.2974C122.889 19.2974 122.038 18.2427 122.038 16.7587C122.038 15.3867 122.936 14.2107 124.376 14.2107C125.901 14.2107 126.836 15.5827 126.658 17.0294ZM123.104 16.3294H125.592C125.555 15.6574 125.096 15.0507 124.376 15.0507C123.637 15.0507 123.132 15.6107 123.104 16.3294Z" fill="white"/>
<path d="M39.1258 43.52C37.1073 45.4728 34.9035 45.1644 32.782 44.2395C30.537 43.2939 28.4773 43.2528 26.1087 44.2395C23.1428 45.5139 21.5774 45.1439 19.8061 43.52C9.75498 33.1805 11.2379 17.4349 22.6485 16.8595C25.4291 17.0033 27.3651 18.3805 28.9922 18.5039C31.4227 18.0105 33.7501 16.5923 36.3453 16.7772C39.4554 17.0239 41.8034 18.2572 43.3482 20.4772C36.922 24.3211 38.4461 32.7695 44.3368 35.1333C43.1628 38.2167 41.6386 41.2795 39.1052 43.5405L39.1258 43.52ZM28.7863 16.7361C28.4773 12.1522 32.2053 8.37 36.4894 8C37.0868 13.3033 31.6698 17.25 28.7863 16.7361Z" fill="white"/>
</g>
<defs>
<clipPath id="clip0_1274_8811">
<rect width="167" height="56" fill="white" transform="translate(0 0.5)"/>
</clipPath>
</defs>
</svg>
