<svg width="14" height="15" viewBox="0 0 14 15" fill="none" xmlns="http://www.w3.org/2000/svg">
<path fill-rule="evenodd" clip-rule="evenodd" d="M8.24616 1.31539C8.47923 1.45007 8.7439 1.52095 9.0131 1.52095H9.56616C10.1144 1.52095 10.6208 1.81343 10.895 2.28813L11.1713 2.76697C11.3061 3.0002 11.4998 3.19389 11.7332 3.32857L12.212 3.6051C12.687 3.87919 12.9792 4.3857 12.9792 4.93388V5.48702C12.9792 5.75631 13.0502 6.02087 13.1846 6.25411L13.4614 6.73284C13.7351 7.20757 13.7351 7.79244 13.4614 8.26711L13.1846 8.74584C13.0502 8.97904 12.9792 9.24371 12.9792 9.51297V10.0662C12.9792 10.6144 12.687 11.1208 12.212 11.3949L11.7328 11.6715C11.5919 11.7529 11.4652 11.8558 11.3575 11.976C11.2872 12.0547 11.2247 12.1408 11.1713 12.2331L10.895 12.7118C10.6208 13.1866 10.1144 13.479 9.56616 13.479H9.01343C8.74423 13.479 8.47956 13.5499 8.2465 13.6845L7.76703 13.9612C7.29243 14.2352 6.70776 14.2352 6.23316 13.9612L5.75363 13.6845C5.52059 13.5499 5.25594 13.479 4.98674 13.479H4.434C3.88582 13.479 3.37932 13.1866 3.10522 12.7118L2.82886 12.2331C2.69409 11.9999 2.50041 11.8062 2.26734 11.6715L1.78817 11.3949C1.31323 11.1208 1.02092 10.6144 1.02092 10.0662V9.51297C1.02092 9.24371 0.949949 8.97904 0.815509 8.74591L0.538816 8.26711C0.265056 7.79244 0.265056 7.20757 0.538816 6.73284L0.815509 6.25411C0.949949 6.02087 1.02092 5.75631 1.02092 5.48702V4.93388C1.02092 4.3857 1.31323 3.87919 1.78817 3.6051L2.26701 3.32857C2.50041 3.19389 2.69409 3.0002 2.82886 2.76697L3.10522 2.28813C3.37932 1.81343 3.88582 1.52095 4.434 1.52095H4.98706C5.12801 1.52095 5.26766 1.50151 5.40242 1.46366C5.52482 1.42924 5.64298 1.3796 5.75396 1.31539L6.23283 1.03894C6.70776 0.764852 7.29243 0.764852 7.76736 1.03894L8.24616 1.31539ZM9.91123 5.35169C10.0733 5.09997 10.0076 4.75989 9.76443 4.59208C9.5209 4.42427 9.1925 4.49231 9.03003 4.74402L6.09416 9.30051L4.90373 8.06877C4.69702 7.85484 4.36174 7.85484 4.15503 8.06877C3.94832 8.28271 3.94832 8.62951 4.15503 8.84344L5.4978 10.2326C5.89136 10.6399 6.54696 10.5728 6.8559 10.0934L9.91123 5.35169Z" fill="#008AD5"/>
</svg>
