<svg width="24" height="25" viewBox="0 0 24 25" fill="none" xmlns="http://www.w3.org/2000/svg">
<g clip-path="url(#clip0_39_21192)">
<mask id="mask0_39_21192" style="mask-type:luminance" maskUnits="userSpaceOnUse" x="0" y="0" width="24" height="25">
<path d="M0 0.5H24V24.5H0V0.5Z" fill="white"/>
</mask>
<g mask="url(#mask0_39_21192)">
<path fill-rule="evenodd" clip-rule="evenodd" d="M0 12.5C0 5.87258 5.37258 0.5 12 0.5C18.6274 0.5 24 5.87258 24 12.5C24 19.1274 18.6274 24.5 12 24.5C5.37258 24.5 0 19.1274 0 12.5ZM12 2.5C6.47716 2.5 2 6.97716 2 12.5C2 18.0228 6.47716 22.5 12 22.5C17.5228 22.5 22 18.0228 22 12.5C22 6.97716 17.5228 2.5 12 2.5ZM13 5.9963C14.7393 6.19866 16.449 7.17298 16.9701 9.25736C17.2829 10.5085 15.3427 10.9936 15.0299 9.74244C14.7928 8.79422 14.021 8.18618 13 8.00684V11.4795C18.0525 11.6568 17.9661 17.8197 13 18.9045C13 20.7196 11 20.814 11 19.0036C9.2607 18.8012 7.55096 17.8268 7.02986 15.7425C6.71706 14.4913 8.65734 14.0062 8.97014 15.2574C9.2072 16.2056 9.97904 16.8137 11 16.993V13.4512C5.54394 13.28 6.29236 7.1238 11 6.0954C11 4.35494 13 4.09108 13 5.9963ZM11 11.4489C8.2838 11.3565 8.70026 8.89516 11 8.1595V11.4489ZM13 16.8404V13.482C15.7258 13.5872 15.2976 16.1055 13 16.8404Z" fill="#008AD5"/>
</g>
</g>
<defs>
<clipPath id="clip0_39_21192">
<rect width="24" height="24" fill="white" transform="translate(0 0.5)"/>
</clipPath>
</defs>
</svg>
