<svg width="14" height="14" viewBox="0 0 14 14" fill="none" xmlns="http://www.w3.org/2000/svg">
<g clip-path="url(#clip0_195_18858)">
<path d="M13.4843 1.47048C13.4561 0.954083 13.0454 0.54344 12.529 0.515257C11.4871 0.458331 9.44809 0.513708 7.49839 1.52215C6.50448 2.03626 5.4533 2.90789 4.61442 3.91356C4.60409 3.92595 4.59404 3.93842 4.58378 3.95084L2.67999 4.0979C2.36662 4.12212 2.0875 4.28637 1.91418 4.54851L0.61535 6.51303C0.483903 6.71184 0.463006 6.96064 0.559415 7.17857C0.655848 7.39652 0.853997 7.54841 1.08949 7.5849L2.69345 7.83332C2.68778 7.8645 2.6821 7.89565 2.67689 7.92683C2.62349 8.24624 2.72932 8.57465 2.96002 8.80532L5.19419 11.0395C5.38546 11.2308 5.64391 11.3362 5.90874 11.3362C5.96328 11.3362 6.01812 11.3317 6.07271 11.3226C6.10389 11.3174 6.13504 11.3117 6.16622 11.3061L6.41464 12.91C6.45113 13.1455 6.60302 13.3437 6.82092 13.4401C6.91159 13.4802 7.00754 13.5 7.10306 13.5C7.2372 13.5 7.3704 13.461 7.48648 13.3842L9.45101 12.0854C9.71317 11.912 9.87739 11.6329 9.90156 11.3196L10.0486 9.41579C10.061 9.40553 10.0735 9.39548 10.0859 9.38514C11.0916 8.54626 11.9633 7.49509 12.4774 6.50115C13.4859 4.55138 13.5411 2.51238 13.4843 1.47048ZM9.03092 11.4499L7.15173 12.6924L6.90961 11.1292C7.70383 10.8957 8.48949 10.5217 9.23798 10.0206L9.14218 11.2608C9.13622 11.3382 9.09564 11.4071 9.03092 11.4499ZM5.7328 10.5009L3.49861 8.26671C3.44161 8.20968 3.41525 8.12958 3.42817 8.05241C3.4946 7.65523 3.59781 7.27714 3.72557 6.92096L7.07785 10.2732C6.65007 10.4265 6.2669 10.5179 5.9471 10.5713C5.86981 10.5842 5.78981 10.5579 5.7328 10.5009ZM2.73867 4.85736L3.97885 4.76156C3.47779 5.51005 3.10378 6.29571 2.87027 7.08993L1.30712 6.84783L2.54958 4.96862C2.59239 4.90387 2.66133 4.86333 2.73867 4.85736ZM9.59807 8.80017C8.98278 9.31339 8.38552 9.6846 7.835 9.95321L4.04618 6.16439C4.39805 5.44573 4.82748 4.8473 5.19935 4.40149C5.97567 3.4708 6.9412 2.66792 7.84838 2.19871C9.63776 1.27314 11.523 1.2233 12.4876 1.27581C12.6152 1.28276 12.7168 1.3843 12.7237 1.51199C12.7763 2.47653 12.7264 4.36178 11.8008 6.15119C11.3316 7.05834 10.5287 8.02385 9.59807 8.80017Z" fill="#FAFAFA"/>
<path d="M9.40522 6.49808C9.89277 6.49803 10.3805 6.31243 10.7517 5.94124C11.1114 5.58158 11.3094 5.10338 11.3094 4.59475C11.3094 4.08613 11.1114 3.60792 10.7517 3.24826C10.0092 2.50576 8.80115 2.50581 8.05873 3.24826C7.69905 3.60792 7.50098 4.08613 7.50098 4.59475C7.50098 5.10338 7.69907 5.58158 8.05873 5.94124C8.42999 6.3125 8.91749 6.49813 9.40522 6.49808ZM8.59729 3.78685C8.82002 3.56409 9.1126 3.45273 9.40517 3.45273C9.69777 3.45273 9.99035 3.56409 10.2131 3.78685C10.4289 4.00264 10.5477 4.28956 10.5477 4.59473C10.5477 4.8999 10.4289 5.18684 10.2131 5.40263C9.76762 5.84811 9.04275 5.84808 8.59727 5.40263C8.38147 5.18684 8.26262 4.89992 8.26262 4.59475C8.26262 4.28958 8.3815 4.00264 8.59729 3.78685Z" fill="#FAFAFA"/>
<path d="M0.888659 11.2132C0.986134 11.2132 1.08361 11.176 1.15795 11.1016L2.40141 9.85817C2.55015 9.70943 2.55015 9.4683 2.40141 9.31956C2.25269 9.17082 2.01153 9.17082 1.8628 9.31956L0.619366 10.563C0.470628 10.7118 0.470628 10.9529 0.619366 11.1016C0.69371 11.176 0.791185 11.2132 0.888659 11.2132Z" fill="#FAFAFA"/>
<path d="M3.54079 10.4592C3.39208 10.3105 3.15092 10.3105 3.00218 10.4592L0.611554 12.8499C0.462815 12.9986 0.462815 13.2397 0.611554 13.3885C0.685923 13.4628 0.783372 13.5 0.880847 13.5C0.978321 13.5 1.0758 13.4628 1.15014 13.3884L3.54077 10.9978C3.68953 10.8491 3.68953 10.6079 3.54079 10.4592Z" fill="#FAFAFA"/>
<path d="M4.14163 11.5989L2.89817 12.8423C2.74944 12.9911 2.74944 13.2322 2.89817 13.3809C2.97254 13.4553 3.07002 13.4925 3.16747 13.4925C3.26492 13.4925 3.36242 13.4553 3.43676 13.3809L4.68022 12.1375C4.82895 11.9887 4.82895 11.7476 4.68022 11.5989C4.5315 11.4501 4.29034 11.4501 4.14163 11.5989Z" fill="#FAFAFA"/>
</g>
<defs>
<clipPath id="clip0_195_18858">
<rect width="13" height="13" fill="white" transform="translate(0.5 0.5)"/>
</clipPath>
</defs>
</svg>
