<svg width="24" height="24" viewBox="0 0 24 24" fill="none" xmlns="http://www.w3.org/2000/svg">
<path fill-rule="evenodd" clip-rule="evenodd" d="M9.188 15L11.1 17.55C11.55 18.15 12.45 18.15 12.9 17.55L14.812 15H18C19.657 15 21 13.657 21 12V6C21 4.343 19.657 3 18 3H6C4.343 3 3 4.343 3 6V12C3 13.657 4.343 15 6 15H9.188Z" stroke="#003958" stroke-linecap="round" stroke-linejoin="round"/>
<path d="M7 21H17" stroke="#003958" stroke-linecap="round" stroke-linejoin="round"/>
<path d="M12.177 9.32281C12.275 9.42081 12.275 9.57881 12.177 9.67681C12.079 9.77481 11.921 9.77481 11.823 9.67681C11.725 9.57881 11.725 9.42081 11.823 9.32281C11.921 9.22481 12.079 9.22581 12.177 9.32281" stroke="#003958" stroke-linecap="round" stroke-linejoin="round"/>
<path d="M16.177 9.32281C16.275 9.42081 16.275 9.57881 16.177 9.67681C16.079 9.77481 15.921 9.77481 15.823 9.67681C15.725 9.57881 15.725 9.42081 15.823 9.32281C15.921 9.22481 16.079 9.22581 16.177 9.32281" stroke="#003958" stroke-linecap="round" stroke-linejoin="round"/>
<path d="M8.177 9.32281C8.275 9.42081 8.275 9.57881 8.177 9.67681C8.079 9.77481 7.921 9.77481 7.823 9.67681C7.725 9.57881 7.725 9.42081 7.823 9.32281C7.921 9.22481 8.079 9.22581 8.177 9.32281" stroke="#003958" stroke-linecap="round" stroke-linejoin="round"/>
</svg>
