<svg width="16" height="16" viewBox="0 0 16 16" fill="none" xmlns="http://www.w3.org/2000/svg">
<path d="M5.59998 8.2666C5.30542 8.2666 5.06665 8.50537 5.06665 8.79993C5.06665 9.09449 5.30542 9.33327 5.59998 9.33327H10.4C10.6945 9.33327 10.9333 9.09449 10.9333 8.79993C10.9333 8.50537 10.6945 8.2666 10.4 8.2666H5.59998Z" fill="#0A0A0B"/>
<path d="M5.06665 10.9332C5.06665 10.6387 5.30542 10.3999 5.59998 10.3999H10.4C10.6945 10.3999 10.9333 10.6387 10.9333 10.9332C10.9333 11.2278 10.6945 11.4666 10.4 11.4666H5.59998C5.30542 11.4666 5.06665 11.2278 5.06665 10.9332Z" fill="#0A0A0B"/>
<path fill-rule="evenodd" clip-rule="evenodd" d="M9.86666 0L6.1333 1.06494e-05C4.95512 1.3316e-05 4 0.955135 4 2.13333C4 3.0822 4.61946 3.88636 5.47605 4.16348L5.1836 5.33334H5.08146C3.75352 5.33334 2.62794 6.31041 2.44128 7.62515L1.85547 11.7513C0.808546 11.8874 0 12.7826 0 13.8667C0 15.0449 0.955124 16 2.13333 16H13.8667C15.0449 16 16 15.0449 16 13.8667C16 12.7826 15.1914 11.8874 14.1445 11.7513L13.5587 7.62515C13.372 6.31041 12.2464 5.33334 10.9185 5.33334H10.8164L10.5239 4.16348C11.3805 3.88636 12 3.08217 12 2.13333C12 0.955119 11.0449 -5.33331e-06 9.86666 0ZM6.13333 1.06668L9.86666 1.06667C10.4558 1.06666 10.9333 1.54423 10.9333 2.13333C10.9333 2.72244 10.4558 3.19999 9.86666 3.19999H6.13333C5.54421 3.19999 5.06666 2.72244 5.06666 2.13333C5.06666 1.54424 5.54421 1.06668 6.13333 1.06668ZM13.0647 11.7341L12.5026 7.7751C12.3906 6.98625 11.7153 6.40001 10.9185 6.40001H5.08146C4.28469 6.40001 3.60936 6.98625 3.49736 7.7751L2.93488 11.7368C3.62592 11.7711 4.28165 12.0607 4.7732 12.5523L4.91045 12.6895C5.32266 13.1018 5.88175 13.3333 6.46469 13.3333H9.21623C9.85279 13.3333 10.4684 13.1056 10.9517 12.6914L11.2635 12.4241C11.7668 11.9927 12.4033 11.7493 13.0647 11.7341ZM9.71692 5.33334H6.28309L6.54975 4.26668H9.45026L9.71692 5.33334ZM1.06667 13.8667C1.06667 13.2776 1.54423 12.8 2.13333 12.8H2.79608C3.25474 12.8 3.69461 12.9822 4.01896 13.3065L4.15621 13.4438C4.76845 14.0561 5.59885 14.4 6.46469 14.4H9.21623C10.1074 14.4 10.9692 14.0812 11.6459 13.5012L11.9577 13.2339C12.2844 12.9539 12.7005 12.8 13.1308 12.8H13.8667C14.4557 12.8 14.9333 13.2776 14.9333 13.8667C14.9333 14.4558 14.4557 14.9333 13.8667 14.9333H2.13333C1.54423 14.9333 1.06667 14.4558 1.06667 13.8667Z" fill="#0A0A0B"/>
</svg>
