<svg width="24" height="24" viewBox="0 0 24 24" fill="none" xmlns="http://www.w3.org/2000/svg">
<path d="M23.9994 12C23.9994 18.6275 18.6269 24 11.9994 24C5.37246 23.9994 0 18.6269 0 12C0 5.37246 5.37246 0 12 0C18.6275 0 24 5.37246 24 12H23.9994Z" fill="#D5F0FF"/>
<path d="M15.5548 11.0687L15.3549 12.6741C15.321 12.9423 15.0939 13.144 14.8246 13.144H12.2244V19.8561C11.9502 19.8809 11.6724 19.8936 11.3915 19.8936C10.7634 19.8936 10.1503 19.8307 9.55781 19.7112V13.144H7.55801C7.3744 13.144 7.22461 12.9936 7.22461 12.8094V10.8005C7.22461 10.6163 7.3744 10.4659 7.55801 10.4659H9.55781V7.45325C9.55781 5.60445 11.0503 4.10596 12.8918 4.10596H15.225C15.4086 4.10596 15.5584 4.25635 15.5584 4.44057V6.44942C15.5584 6.63364 15.4086 6.78403 15.225 6.78403H13.558C12.8218 6.78403 12.225 7.38319 12.225 8.12307V10.4665H15.0251C15.3464 10.4665 15.5947 10.7492 15.5554 11.0693L15.5548 11.0687Z" fill="#008AD5"/>
</svg>
