<svg width="32" height="32" viewBox="0 0 32 32" fill="none" xmlns="http://www.w3.org/2000/svg">
<path d="M24 6.66667H28" stroke="#323232" stroke-width="1.5" stroke-linecap="round" stroke-linejoin="round"/>
<path d="M4 6.66667H18.6667" stroke="#323232" stroke-width="1.5" stroke-linecap="round" stroke-linejoin="round"/>
<path d="M13.3333 16.0002H27.9999" stroke="#323232" stroke-width="1.5" stroke-linecap="round" stroke-linejoin="round"/>
<path d="M4 16.0002H8" stroke="#323232" stroke-width="1.5" stroke-linecap="round" stroke-linejoin="round"/>
<path d="M24 25.3332H28" stroke="#323232" stroke-width="1.5" stroke-linecap="round" stroke-linejoin="round"/>
<path d="M4 25.3332H18.6667" stroke="#323232" stroke-width="1.5" stroke-linecap="round" stroke-linejoin="round"/>
<path d="M23.219 4.78105C24.2604 5.82245 24.2604 7.51089 23.219 8.55229C22.1776 9.59369 20.4892 9.59369 19.4478 8.55229C18.4064 7.51089 18.4064 5.82245 19.4478 4.78105C20.4892 3.73965 22.1776 3.73965 23.219 4.78105" stroke="#323232" stroke-width="1.5" stroke-linecap="round" stroke-linejoin="round"/>
<path d="M12.5523 14.1145C13.5937 15.1559 13.5937 16.8444 12.5523 17.8858C11.5109 18.9272 9.82245 18.9272 8.78105 17.8858C7.73965 16.8444 7.73965 15.1559 8.78105 14.1145C9.82245 13.0731 11.5109 13.0731 12.5523 14.1145" stroke="#323232" stroke-width="1.5" stroke-linecap="round" stroke-linejoin="round"/>
<path d="M23.219 23.4476C24.2604 24.489 24.2604 26.1774 23.219 27.2188C22.1776 28.2602 20.4892 28.2602 19.4478 27.2188C18.4064 26.1774 18.4064 24.489 19.4478 23.4476C20.4892 22.4062 22.1776 22.4062 23.219 23.4476" stroke="#323232" stroke-width="1.5" stroke-linecap="round" stroke-linejoin="round"/>
</svg>
