<svg width="70" height="69" viewBox="0 0 70 69" fill="none" xmlns="http://www.w3.org/2000/svg">
<path d="M60.5602 45.9798L48.368 33.7877C47.2576 32.6772 45.4599 32.6772 44.3523 33.7877L32.1602 45.9798" stroke="#008AD5" stroke-width="1.5" stroke-linecap="round" stroke-linejoin="round"/>
<path fill-rule="evenodd" clip-rule="evenodd" d="M52.0395 60.1798H17.9595C13.2536 60.1798 9.43945 56.3657 9.43945 51.6598V17.5798C9.43945 12.8739 13.2536 9.05981 17.9595 9.05981H52.0395C56.7453 9.05981 60.5595 12.8739 60.5595 17.5798V51.6598C60.5595 56.3657 56.7453 60.1798 52.0395 60.1798Z" stroke="#008AD5" stroke-width="1.5" stroke-linecap="round" stroke-linejoin="round"/>
<path d="M46.3604 60.1798L28.4883 42.3077C27.3778 41.1972 25.5801 41.1972 24.4725 42.3077L10.707 56.0732" stroke="#008AD5" stroke-width="1.5" stroke-linecap="round" stroke-linejoin="round"/>
<path d="M27.2326 25.3467C27.6485 25.7627 27.6485 26.437 27.2326 26.8529C26.8167 27.2688 26.1424 27.2688 25.7265 26.8529C25.3106 26.437 25.3106 25.7627 25.7265 25.3467C26.1424 24.9308 26.8167 24.9308 27.2326 25.3467" stroke="#008AD5" stroke-width="1.5" stroke-linecap="round" stroke-linejoin="round"/>
</svg>
