<svg width="24" height="24" viewBox="0 0 24 24" fill="none" xmlns="http://www.w3.org/2000/svg">
<path d="M24 12C24 18.6275 18.6275 24 12 24C5.37246 24 0 18.6275 0 12C0 5.37246 5.37246 0 12 0C18.6275 0 24 5.37246 24 12Z" fill="#D5F0FF"/>
<path d="M15.2563 5.70557H8.74471C7.06684 5.70557 5.70605 7.06635 5.70605 8.74422V15.2558C5.70605 16.9337 7.06684 18.2945 8.74471 18.2945H15.2563C16.9342 18.2945 18.2949 16.9337 18.2949 15.2558V8.74422C18.2949 7.06635 16.9342 5.70557 15.2563 5.70557ZM17.2096 15.039C17.2096 16.2373 16.2372 17.2097 15.0389 17.2097H8.96154C7.76323 17.2097 6.79082 16.2373 6.79082 15.039V8.96166C6.79082 7.76335 7.76323 6.79093 8.96154 6.79093H15.0389C16.2372 6.79093 17.2096 7.76335 17.2096 8.96166V15.039Z" fill="#008AD5"/>
<path d="M12.0065 8.74414C10.2096 8.74414 8.75098 10.2028 8.75098 11.9996C8.75098 13.7965 10.2096 15.2551 12.0065 15.2551C13.8033 15.2551 15.262 13.7965 15.262 11.9996C15.262 10.2028 13.8033 8.74414 12.0065 8.74414ZM12.0065 14.1704C10.8106 14.1704 9.83573 13.1955 9.83573 11.9996C9.83573 10.8037 10.8106 9.8289 12.0065 9.8289C13.2024 9.8289 14.1772 10.8037 14.1772 11.9996C14.1772 13.1955 13.2024 14.1704 12.0065 14.1704Z" fill="#008AD5"/>
<path d="M15.4792 9.17866C15.1205 9.17866 14.8281 8.88633 14.8281 8.52756C14.8281 8.16879 15.1205 7.87646 15.4792 7.87646C15.838 7.87646 16.1303 8.16879 16.1303 8.52756C16.1303 8.88633 15.838 9.17866 15.4792 9.17866Z" fill="#008AD5"/>
</svg>
