<svg width="24" height="25" viewBox="0 0 24 25" fill="none" xmlns="http://www.w3.org/2000/svg">
<path fill-rule="evenodd" clip-rule="evenodd" d="M9.188 15.5L11.1 18.05C11.55 18.65 12.45 18.65 12.9 18.05L14.812 15.5H18C19.657 15.5 21 14.157 21 12.5V6.5C21 4.843 19.657 3.5 18 3.5H6C4.343 3.5 3 4.843 3 6.5V12.5C3 14.157 4.343 15.5 6 15.5H9.188Z" stroke="#FAFAFA" stroke-width="1.5" stroke-linecap="round" stroke-linejoin="round"/>
<path d="M7 21.5H17" stroke="#FAFAFA" stroke-width="1.5" stroke-linecap="round" stroke-linejoin="round"/>
<path d="M12.177 9.82281C12.275 9.92081 12.275 10.0788 12.177 10.1768C12.079 10.2748 11.921 10.2748 11.823 10.1768C11.725 10.0788 11.725 9.92081 11.823 9.82281C11.921 9.72481 12.079 9.72581 12.177 9.82281" stroke="#FAFAFA" stroke-width="1.5" stroke-linecap="round" stroke-linejoin="round"/>
<path d="M16.177 9.82281C16.275 9.92081 16.275 10.0788 16.177 10.1768C16.079 10.2748 15.921 10.2748 15.823 10.1768C15.725 10.0788 15.725 9.92081 15.823 9.82281C15.921 9.72481 16.079 9.72581 16.177 9.82281" stroke="#FAFAFA" stroke-width="1.5" stroke-linecap="round" stroke-linejoin="round"/>
<path d="M8.177 9.82281C8.275 9.92081 8.275 10.0788 8.177 10.1768C8.079 10.2748 7.921 10.2748 7.823 10.1768C7.725 10.0788 7.725 9.92081 7.823 9.82281C7.921 9.72481 8.079 9.72581 8.177 9.82281" stroke="#FAFAFA" stroke-width="1.5" stroke-linecap="round" stroke-linejoin="round"/>
</svg>
