<svg width="24" height="24" viewBox="0 0 24 24" fill="none" xmlns="http://www.w3.org/2000/svg">
<path d="M5.99783 13.1534C4.16007 13.9778 2.99658 15.1703 2.99658 16.5018C2.99658 18.9879 7.02726 21.0037 12.0003 21.0037C16.9734 21.0037 21.0041 18.9879 21.0041 16.5018C21.0041 15.1703 19.8406 13.9778 18.0028 13.1534" stroke="#7991A4" stroke-width="1.5" stroke-linecap="round" stroke-linejoin="round"/>
<path d="M15.6537 17.0021C14.5696 17.7075 13.2925 18.0572 12.0002 18.0025C10.7079 18.0572 9.43079 17.7075 8.34668 17.0021" stroke="#7991A4" stroke-width="1.5" stroke-linecap="round" stroke-linejoin="round"/>
<path d="M14.2012 3.90966C15.0931 4.80148 15.3599 6.14273 14.8773 7.30797C14.3946 8.47322 13.2576 9.23298 11.9963 9.23298C10.7351 9.23298 9.59802 8.47322 9.11537 7.30797C8.63273 6.14273 8.89954 4.80148 9.7914 3.90966C10.3761 3.32465 11.1692 2.99597 11.9963 2.99597C12.8234 2.99597 13.6166 3.32465 14.2012 3.90966" stroke="#7991A4" stroke-width="1.5" stroke-linecap="round" stroke-linejoin="round"/>
<path d="M12.0002 9.23083V15.0012" stroke="#7991A4" stroke-width="1.5" stroke-linecap="round" stroke-linejoin="round"/>
</svg>
