<svg width="21" height="21" viewBox="0 0 21 21" fill="none" xmlns="http://www.w3.org/2000/svg">
<path d="M10.9454 1.97164C12.2409 3.26717 12.2409 5.36763 10.9454 6.66315C9.64985 7.95868 7.54939 7.95868 6.25387 6.66315C4.95835 5.36763 4.95835 3.26717 6.25387 1.97164C7.54939 0.676119 9.64985 0.676119 10.9454 1.97164" stroke="#0A0A0B" stroke-width="1.5" stroke-linecap="round" stroke-linejoin="round"/>
<path d="M12.7449 11.2564C11.5108 10.7634 10.063 10.4917 8.6 10.4917C4.7544 10.4917 1 12.3603 1 15.2341V16.1841C1 16.7085 1.4256 17.1341 1.95 17.1341H10.8924" stroke="#0A0A0B" stroke-width="1.5" stroke-linecap="round" stroke-linejoin="round"/>
<path d="M15.25 20C12.6271 20 10.5 17.8739 10.5 15.25C10.5 12.6812 12.685 10.4972 15.2538 10.5C17.8758 10.5019 20 12.628 20 15.25C20 17.873 17.8739 20 15.25 20" stroke="#0A0A0B" stroke-width="1.5" stroke-linecap="round" stroke-linejoin="round"/>
<path d="M15.2504 13.3501V13.9866" stroke="#0A0A0B" stroke-width="1.5" stroke-linecap="round" stroke-linejoin="round"/>
<path d="M15.2504 16.5137V17.1502" stroke="#0A0A0B" stroke-width="1.5" stroke-linecap="round" stroke-linejoin="round"/>
<path d="M13.6067 14.3002L14.1577 14.6137" stroke="#0A0A0B" stroke-width="1.5" stroke-linecap="round" stroke-linejoin="round"/>
<path d="M16.3517 15.8866L16.8932 16.2001" stroke="#0A0A0B" stroke-width="1.5" stroke-linecap="round" stroke-linejoin="round"/>
<path d="M13.6067 16.2001L14.1577 15.8866" stroke="#0A0A0B" stroke-width="1.5" stroke-linecap="round" stroke-linejoin="round"/>
<path d="M16.3517 14.6137L16.8932 14.3002" stroke="#0A0A0B" stroke-width="1.5" stroke-linecap="round" stroke-linejoin="round"/>
<path d="M16.1458 14.3536C16.6407 14.8485 16.6407 15.6509 16.1458 16.1458C15.6509 16.6407 14.8485 16.6407 14.3536 16.1458C13.8587 15.6509 13.8587 14.8485 14.3536 14.3536C14.8485 13.8587 15.6509 13.8587 16.1458 14.3536" stroke="#0A0A0B" stroke-width="1.5" stroke-linecap="round" stroke-linejoin="round"/>
</svg>
