<svg width="20" height="20" viewBox="0 0 20 20" fill="none" xmlns="http://www.w3.org/2000/svg">
<path d="M12.7658 8.61841L9.30915 12.0751L7.23499 10.0009" stroke="#0A0A0B" stroke-width="1.5" stroke-linecap="round" stroke-linejoin="round"/>
<path fill-rule="evenodd" clip-rule="evenodd" d="M15.9166 4.93424C13.8675 4.77257 12.0025 3.95674 10.5308 2.69424C10.2291 2.4359 9.76998 2.4359 9.46915 2.69424C7.99748 3.9559 6.13248 4.77257 4.08331 4.93424C3.65665 4.96757 3.33331 5.33257 3.33331 5.76007V9.3684C3.33331 13.0076 5.96331 16.4201 9.56498 17.4392C9.84748 17.5192 10.1533 17.5192 10.4358 17.4392C14.0366 16.4192 16.6666 13.0084 16.6666 9.36924V5.7609C16.6666 5.33257 16.3433 4.96757 15.9166 4.93424Z" stroke="#0A0A0B" stroke-width="1.5" stroke-linecap="round" stroke-linejoin="round"/>
</svg>
