<svg width="90" height="35" viewBox="0 0 90 35" fill="none" xmlns="http://www.w3.org/2000/svg">
<g clip-path="url(#clip0_39_21141)">
<path d="M82.1925 12.4111L69.1665 11.9306C68.4809 11.9049 67.8082 11.7063 67.2379 11.3795L58.9341 5.77959C53.8147 2.32607 47.8431 0.5 41.6601 0.5H29.6721C26.917 0.5 24.2003 1.23043 21.8168 2.6144L9.63019 9.68162C9.39312 9.82258 9.11761 9.89306 8.8421 9.89946L5.45906 9.96354C4.05587 9.91228 2.66549 10.4441 1.64033 11.4436C0.608761 12.4431 0.0449219 13.7823 0.0449219 15.2175V19.8243C0.0449219 25.2 4.41468 29.5762 9.79678 29.5762H10.8668C12.2059 32.562 15.1981 34.6507 18.6773 34.6507C22.1564 34.6507 25.1486 32.562 26.4877 29.5762H63.7332C65.0723 32.562 68.0645 34.6507 71.5436 34.6507C75.0228 34.6507 78.015 32.562 79.3541 29.5762H79.6104C84.9861 29.5762 89.3622 25.2 89.3622 19.8243C89.3622 15.8006 86.2099 12.5457 82.1925 12.4175V12.4111ZM10.4824 28.5831H9.78397C6.2856 28.5831 3.27418 26.5199 1.86459 23.5534H10.4888C10.2389 24.3543 10.1043 25.2 10.1043 26.0842C10.1043 26.9684 10.2389 27.795 10.476 28.5831H10.4824ZM25.7957 28.5831C25.674 28.9226 25.533 29.2494 25.3664 29.5698C24.0978 31.9853 21.5926 33.6576 18.6773 33.6576C15.7619 33.6576 13.2567 31.9853 11.9881 29.5698C11.8215 29.2494 11.6741 28.9291 11.5524 28.5831C11.2769 27.795 11.0975 26.962 11.0975 26.0842C11.0975 25.2064 11.2833 24.3479 11.5652 23.5534C11.6869 23.2138 11.8343 22.887 12.0073 22.5666C13.2823 20.1639 15.7748 18.5044 18.6773 18.5044C21.5797 18.5044 24.0786 20.1639 25.3472 22.5666C25.5138 22.887 25.6612 23.2074 25.7893 23.5534C26.0712 24.3479 26.257 25.1936 26.257 26.0842C26.257 26.9748 26.0776 27.795 25.8021 28.5831H25.7957ZM63.3615 28.5831H26.8657C27.1092 27.7886 27.2374 26.9556 27.2374 26.0842C27.2374 25.2128 27.1028 24.3543 26.8529 23.5534H63.3679C63.1181 24.3543 62.9835 25.2 62.9835 26.0842C62.9835 26.9684 63.1181 27.795 63.3551 28.5831H63.3615ZM78.6685 28.5831C78.5468 28.9226 78.4058 29.2494 78.2392 29.5698C76.9706 31.9853 74.4653 33.6576 71.55 33.6576C68.6347 33.6576 66.1295 31.9853 64.8608 29.5698C64.6942 29.2494 64.5469 28.9291 64.4315 28.5831C64.156 27.795 63.9766 26.962 63.9766 26.0842C63.9766 25.2064 64.1624 24.3479 64.4444 23.5534C64.5661 23.2138 64.7135 22.887 64.8865 22.5666C66.1615 20.1639 68.6539 18.5044 71.5564 18.5044C74.4589 18.5044 76.9577 20.1639 78.2264 22.5666C78.393 22.887 78.5403 23.2074 78.6685 23.5534C78.9504 24.3479 79.1362 25.1936 79.1362 26.0842C79.1362 26.9748 78.9568 27.795 78.6813 28.5831H78.6685ZM79.7385 28.5767C79.982 27.7886 80.1101 26.9492 80.1101 26.0842C80.1101 25.2192 79.9756 24.3543 79.7257 23.5534H87.5297C86.1394 26.4879 83.1792 28.5318 79.7321 28.5767H79.7385ZM79.3477 22.5666C78.0021 19.5937 75.0163 17.5177 71.55 17.5177C68.0837 17.5177 65.0979 19.5937 63.7524 22.5666H26.4749C25.1294 19.5937 22.1436 17.5177 18.6773 17.5177C15.2109 17.5177 12.2251 19.5937 10.8796 22.5666H1.47374C1.21745 21.8042 1.07649 20.9904 1.04446 20.1511H3.53688C3.80599 20.1511 4.03024 19.9332 4.03024 19.6577C4.03024 19.3822 3.81239 19.1644 3.53688 19.1644H1.02523V15.9223H3.53047C3.79958 15.9223 4.02383 15.7044 4.02383 15.4289C4.02383 15.1534 3.80599 14.9356 3.53047 14.9356H1.05086C1.12134 13.8784 1.55063 12.8917 2.3195 12.1484C3.12041 11.3731 4.1712 10.9438 5.30529 10.9438H5.44625L8.85491 10.8798C9.29702 10.8734 9.73271 10.7516 10.1171 10.5274L22.3102 3.46016C24.5399 2.16589 27.09 1.48031 29.6721 1.48031H41.6601C47.6381 1.48031 53.4239 3.24872 58.3831 6.58691L66.7125 12.1997C67.443 12.629 68.2823 12.8724 69.1281 12.9045L82.1541 13.385C84.3966 13.4555 86.3124 14.6537 87.408 16.4221H82.4168C82.1412 16.4221 81.9234 16.6399 81.9234 16.9154C81.9234 17.1909 82.1412 17.4088 82.4168 17.4088H87.9142C88.2089 18.152 88.3755 18.9593 88.3755 19.8115C88.3755 20.7726 88.2153 21.6952 87.927 22.5602H79.3413L79.3477 22.5666Z" fill="#0A0A0B"/>
<path d="M42.2945 3.55109H31.2868C28.5829 3.55109 25.9688 4.69158 24.0274 6.76113C23.1624 7.69018 22.9189 8.99086 23.4059 10.1634C23.8928 11.3359 24.9757 12.0856 26.2443 12.1304L61.8751 13.3286H61.8943C62.157 13.3286 62.3813 13.162 62.4582 12.9121L62.5159 12.4892L59.3443 9.79817C54.5901 5.768 48.5352 3.54468 42.3009 3.54468L42.2945 3.55109ZM26.2763 11.1501C25.4049 11.1181 24.6553 10.5991 24.3157 9.79176C23.9825 8.97804 24.1427 8.08102 24.8283 7.35059C26.5006 5.56297 28.8521 4.54421 31.2804 4.54421H40.4684L42.9865 11.7139L26.2699 11.1501H26.2763ZM44.0373 11.746C44.0373 11.746 44.0373 11.7075 44.0309 11.6883L41.5192 4.5378H42.2945C48.2917 4.5378 54.1223 6.67783 58.6971 10.5542L60.7667 12.3034L44.0373 11.7396V11.746Z" fill="#0A0A0B"/>
<path d="M74.9844 22.5704C74.1002 21.7054 72.8892 21.1672 71.5565 21.1672C70.2238 21.1672 69.0128 21.7054 68.1286 22.5704C67.8275 22.8652 67.5776 23.1983 67.3598 23.5571C66.9113 24.3004 66.6357 25.159 66.6357 26.088C66.6357 27.0171 66.9048 27.85 67.3405 28.5869C67.552 28.9457 67.7955 29.2788 68.0902 29.5736C68.9808 30.4578 70.2046 31.0088 71.5565 31.0088C72.9085 31.0088 74.1322 30.4578 75.0229 29.5736C75.3176 29.2852 75.5547 28.9457 75.7725 28.5869C76.2082 27.85 76.4773 27.0043 76.4773 26.088C76.4773 25.1718 76.2018 24.3004 75.7533 23.5571C75.5354 23.1983 75.2856 22.8652 74.9844 22.5704ZM74.5679 28.5869C74.2284 28.9969 73.8119 29.3301 73.3377 29.5736C72.7995 29.8491 72.1972 30.0221 71.5565 30.0221C70.9158 30.0221 70.3135 29.8491 69.7753 29.5736C69.3012 29.3301 68.8847 28.9969 68.5451 28.5869C67.9749 27.9077 67.6225 27.0427 67.6225 26.088C67.6225 25.1333 67.9877 24.2427 68.5707 23.5571C68.9167 23.1471 69.3396 22.8139 69.8266 22.5704C70.352 22.3141 70.935 22.154 71.5565 22.154C72.178 22.154 72.7611 22.3141 73.2865 22.5704C73.7734 22.8139 74.1963 23.1471 74.5423 23.5571C75.1254 24.2427 75.4906 25.1205 75.4906 26.088C75.4906 27.0555 75.1382 27.9077 74.5679 28.5869Z" fill="#0A0A0B"/>
<path d="M47.939 15.3796H45.3889C45.1134 15.3796 44.8955 15.5975 44.8955 15.873C44.8955 16.1485 45.1134 16.3664 45.3889 16.3664H47.939C48.2145 16.3664 48.4323 16.1485 48.4323 15.873C48.4323 15.5975 48.2145 15.3796 47.939 15.3796Z" fill="#0A0A0B"/>
<path d="M28.9224 15.3796H26.3723C26.0968 15.3796 25.8789 15.5975 25.8789 15.873C25.8789 16.1485 26.0968 16.3664 26.3723 16.3664H28.9224C29.1979 16.3664 29.4157 16.1485 29.4157 15.873C29.4157 15.5975 29.1979 15.3796 28.9224 15.3796Z" fill="#0A0A0B"/>
<path d="M22.1119 22.5704C21.2277 21.7054 20.0167 21.1672 18.684 21.1672C17.3513 21.1672 16.1403 21.7054 15.2497 22.5704C14.9486 22.8652 14.6987 23.1983 14.4809 23.5571C14.0323 24.3004 13.7568 25.159 13.7568 26.088C13.7568 27.0171 14.0259 27.85 14.4616 28.5869C14.6731 28.9457 14.9166 29.2788 15.2113 29.5736C16.1019 30.4578 17.3257 31.0088 18.6776 31.0088C20.0295 31.0088 21.2533 30.4578 22.1439 29.5736C22.4387 29.2852 22.6758 28.9457 22.8936 28.5869C23.3293 27.85 23.5984 27.0043 23.5984 26.088C23.5984 25.1718 23.3229 24.3004 22.8744 23.5571C22.6565 23.1983 22.4066 22.8652 22.1055 22.5704H22.1119ZM21.6954 28.5869C21.3559 28.9969 20.9394 29.3301 20.4652 29.5736C19.927 29.8491 19.3248 30.0221 18.684 30.0221C18.0433 30.0221 17.441 29.8491 16.9028 29.5736C16.4287 29.3301 16.0122 28.9969 15.6726 28.5869C15.1024 27.9077 14.75 27.0427 14.75 26.088C14.75 25.1333 15.1152 24.2427 15.6982 23.5571C16.0442 23.1471 16.4735 22.8139 16.9541 22.5704C17.4795 22.3141 18.0625 22.154 18.684 22.154C19.3055 22.154 19.8886 22.3141 20.414 22.5704C20.9009 22.8139 21.3238 23.1471 21.6698 23.5571C22.2529 24.2427 22.6181 25.1205 22.6181 26.088C22.6181 27.0555 22.2657 27.9077 21.6954 28.5869Z" fill="#0A0A0B"/>
</g>
<defs>
<clipPath id="clip0_39_21141">
<rect width="89.3237" height="34.1507" fill="white" transform="translate(0.0449219 0.5)"/>
</clipPath>
</defs>
</svg>
