<svg width="24" height="25" viewBox="0 0 24 25" fill="none" xmlns="http://www.w3.org/2000/svg">
<path d="M8.55286 10.6142C9.59439 11.6557 9.59439 13.3443 8.55286 14.3859C7.51133 15.4274 5.82268 15.4274 4.78115 14.3859C3.73962 13.3443 3.73962 11.6557 4.78115 10.6142C5.82268 9.57263 7.51133 9.57263 8.55286 10.6142" stroke="#008AD5" stroke-width="1.5" stroke-linecap="round" stroke-linejoin="round"/>
<path d="M19.2189 5.28115C20.2604 6.32268 20.2604 8.01133 19.2189 9.05286C18.1773 10.0944 16.4887 10.0944 15.4472 9.05286C14.4056 8.01133 14.4056 6.32268 15.4472 5.28115C16.4887 4.23962 18.1773 4.23962 19.2189 5.28115" stroke="#008AD5" stroke-width="1.5" stroke-linecap="round" stroke-linejoin="round"/>
<path d="M19.2189 15.947C20.2604 16.9886 20.2604 18.6772 19.2189 19.7188C18.1773 20.7603 16.4887 20.7603 15.4472 19.7188C14.4056 18.6772 14.4056 16.9886 15.4472 15.947C16.4887 14.9055 18.1773 14.9055 19.2189 15.947" stroke="#008AD5" stroke-width="1.5" stroke-linecap="round" stroke-linejoin="round"/>
<path d="M9.04004 11.31L14.96 8.34998" stroke="#008AD5" stroke-width="1.5" stroke-linecap="round" stroke-linejoin="round"/>
<path d="M9.04004 13.6899L14.96 16.6499" stroke="#008AD5" stroke-width="1.5" stroke-linecap="round" stroke-linejoin="round"/>
</svg>
