<svg width="24" height="24" viewBox="0 0 24 24" fill="none" xmlns="http://www.w3.org/2000/svg">
<path d="M14.1218 9.87975C15.2928 11.0508 15.2928 12.9518 14.1218 14.1248C12.9508 15.2958 11.0498 15.2958 9.87679 14.1248C8.70579 12.9538 8.70579 11.0527 9.87679 9.87975C11.0498 8.70675 12.9498 8.70675 14.1218 9.87975" stroke="#003958" stroke-linecap="round" stroke-linejoin="round"/>
<path fill-rule="evenodd" clip-rule="evenodd" d="M3 12C3 11.341 3.152 10.689 3.446 10.088V10.088C4.961 6.991 8.309 5 12 5C15.691 5 19.039 6.991 20.554 10.088V10.088C20.848 10.689 21 11.341 21 12C21 12.659 20.848 13.311 20.554 13.912V13.912C19.039 17.009 15.691 19 12 19C8.309 19 4.961 17.009 3.446 13.912V13.912C3.152 13.311 3 12.659 3 12Z" stroke="#003958" stroke-linecap="round" stroke-linejoin="round"/>
</svg>
