<svg width="97" height="37" viewBox="0 0 97 37" fill="none" xmlns="http://www.w3.org/2000/svg">
<path d="M19.3915 24.4929C18.65 24.4929 17.9252 24.7128 17.3087 25.1247C16.6922 25.5367 16.2117 26.1222 15.9279 26.8072C15.6442 27.4922 15.57 28.246 15.7146 28.9732C15.8593 29.7004 16.2163 30.3684 16.7406 30.8927C17.2649 31.417 17.9329 31.774 18.6601 31.9186C19.3873 32.0633 20.1411 31.9891 20.8261 31.7053C21.5111 31.4216 22.0966 30.9411 22.5085 30.3246C22.9205 29.7081 23.1403 28.9833 23.1403 28.2418C23.1403 27.2475 22.7454 26.294 22.0423 25.5909C21.3393 24.8879 20.3857 24.4929 19.3915 24.4929ZM19.3915 30.4911C18.9466 30.4911 18.5117 30.3592 18.1418 30.1121C17.7719 29.8649 17.4836 29.5136 17.3134 29.1026C17.1431 28.6916 17.0986 28.2393 17.1854 27.803C17.2721 27.3667 17.4864 26.9659 17.8009 26.6513C18.1155 26.3367 18.5163 26.1225 18.9526 26.0357C19.389 25.9489 19.8412 25.9934 20.2522 26.1637C20.6633 26.3339 21.0146 26.6222 21.2617 26.9921C21.5089 27.362 21.6408 27.7969 21.6408 28.2418C21.6408 28.8384 21.4038 29.4105 20.982 29.8323C20.5601 30.2542 19.988 30.4911 19.3915 30.4911Z" fill="black"/>
<path d="M79.3739 24.4929C78.6324 24.4929 77.9076 24.7128 77.2911 25.1247C76.6746 25.5367 76.1941 26.1222 75.9104 26.8072C75.6266 27.4922 75.5524 28.246 75.697 28.9732C75.8417 29.7004 76.1987 30.3684 76.723 30.8927C77.2473 31.417 77.9153 31.774 78.6425 31.9186C79.3697 32.0633 80.1235 31.9891 80.8085 31.7053C81.4935 31.4216 82.079 30.9411 82.491 30.3246C82.9029 29.7081 83.1228 28.9833 83.1228 28.2418C83.1228 27.2475 82.7278 26.294 82.0247 25.5909C81.3217 24.8879 80.3681 24.4929 79.3739 24.4929ZM79.3739 30.4911C78.929 30.4911 78.4941 30.3592 78.1242 30.1121C77.7543 29.8649 77.466 29.5136 77.2958 29.1026C77.1255 28.6916 77.081 28.2393 77.1678 27.803C77.2546 27.3667 77.4688 26.9659 77.7834 26.6513C78.0979 26.3367 78.4987 26.1225 78.9351 26.0357C79.3714 25.9489 79.8237 25.9934 80.2347 26.1637C80.6457 26.3339 80.997 26.6222 81.2441 26.9921C81.4913 27.362 81.6232 27.7969 81.6232 28.2418C81.6232 28.8384 81.3862 29.4105 80.9644 29.8323C80.5426 30.2542 79.9704 30.4911 79.3739 30.4911Z" fill="black"/>
<path d="M92.0075 13.846L73.263 11.3193C58.7849 1.04734 58.6724 0.5 56.3181 0.5H12.4487C11.027 0.505939 9.66558 1.07477 8.6623 2.08203L0.86462 9.96968C0.542216 10.2921 0.647185 9.06995 0.647185 27.447C0.645394 27.6289 0.70982 27.8053 0.828455 27.9432C0.94709 28.0812 1.11184 28.1713 1.29199 28.1967L11.2715 29.6438C11.6076 31.5441 12.5994 33.2664 14.0743 34.5109C15.5492 35.7553 17.4137 36.4433 19.3435 36.4548C21.2732 36.4664 23.1459 35.801 24.6357 34.5743C26.1254 33.3476 27.1378 31.6374 27.4967 29.7413H71.2686C71.6244 31.6307 72.6291 33.3364 74.109 34.5636C75.589 35.7909 77.4511 36.4625 79.3737 36.4625C81.2963 36.4625 83.1585 35.7909 84.6384 34.5636C86.1183 33.3364 87.123 31.6307 87.4788 29.7413H92.8247C93.2746 29.7413 93.2221 29.6513 96.4011 26.4348C96.7086 26.1274 96.6186 26.4798 96.6186 19.117C96.6159 17.8297 96.1475 16.5869 95.3 15.6181C94.4524 14.6493 93.2829 14.0198 92.0075 13.846ZM56.3181 1.99955C57.9676 1.99955 57.3078 1.8346 71.3811 11.7991L66.8 13.2462H44.884V1.99955H56.3181ZM43.3844 13.2462H26.6194L28.0215 1.99955H43.3844V13.2462ZM17.2023 1.99955H26.5145L25.1049 13.2462H12.2387L10.1319 12.189C17.6971 1.36974 17.1423 2.20949 17.2023 1.99955ZM2.14674 17.7449H3.93121L4.68098 19.2444H2.14674V17.7449ZM19.3916 34.9897C17.7909 34.9872 16.2432 34.4158 15.0249 33.3774C13.8067 32.3391 12.9972 30.9015 12.7411 29.3214C12.966 28.8491 12.6436 28.7291 12.6436 28.2417C12.6436 26.9071 13.0394 25.6025 13.7809 24.4928C14.5223 23.3831 15.5762 22.5181 16.8093 22.0074C18.0423 21.4967 19.3991 21.363 20.7081 21.6234C22.017 21.8838 23.2194 22.5265 24.1631 23.4702C25.1069 24.4139 25.7496 25.6163 26.0099 26.9253C26.2703 28.2342 26.1367 29.591 25.6259 30.8241C25.1152 32.0571 24.2503 33.111 23.1406 33.8525C22.0309 34.594 20.7262 34.9897 19.3916 34.9897ZM79.3737 34.9897C78.0391 34.9897 76.7344 34.594 75.6247 33.8525C74.515 33.111 73.6501 32.0571 73.1394 30.8241C72.6287 29.591 72.495 28.2342 72.7554 26.9253C73.0158 25.6163 73.6584 24.4139 74.6022 23.4702C75.5459 22.5265 76.7483 21.8838 78.0573 21.6234C79.3662 21.363 80.723 21.4967 81.9561 22.0074C83.1891 22.5181 84.243 23.3831 84.9845 24.4928C85.7259 25.6025 86.1217 26.9071 86.1217 28.2417C86.1217 30.0314 85.4108 31.7478 84.1453 33.0133C82.8798 34.2788 81.1634 34.9897 79.3737 34.9897ZM92.5098 28.2417H87.6213C87.6213 26.0543 86.7523 23.9566 85.2056 22.4098C83.6589 20.8631 81.5611 19.9942 79.3737 19.9942C77.1863 19.9942 75.0885 20.8631 73.5418 22.4098C71.9951 23.9566 71.1262 26.0543 71.1262 28.2417H27.6391C27.658 26.0543 26.8072 23.949 25.2739 22.389C23.7405 20.8289 21.6502 19.9419 19.4628 19.923C18.3797 19.9136 17.3054 20.1177 16.3012 20.5235C15.297 20.9293 14.3825 21.529 13.6101 22.2882C12.05 23.8216 11.1629 25.9119 11.1441 28.0993L2.14674 26.8022V20.744C6.14305 20.744 6.24052 20.8639 6.53293 20.3916C6.82534 19.9192 6.66039 19.8517 5.03338 16.6427C4.79345 16.1103 4.39607 16.2453 2.14674 16.2453V10.8019C11.8938 0.964863 9.6445 1.99955 15.4328 1.99955C7.80005 12.9013 8.14495 12.1815 8.28741 12.6539C8.42986 13.1262 8.42237 13.0138 11.7289 14.6633C11.9688 14.7907 8.39987 14.7458 66.9199 14.7458C67.0774 14.7458 66.7625 14.8282 72.8432 12.9163C73.323 12.7588 70.9912 12.5189 91.805 15.3306C92.7428 15.4596 93.5998 15.9305 94.2114 16.6529C94.8231 17.3753 95.1464 18.2982 95.119 19.2444H92.8697C92.2731 19.2444 91.701 19.4814 91.2792 19.9032C90.8574 20.3251 90.6204 20.8972 90.6204 21.4937C90.6204 22.0903 90.8574 22.6624 91.2792 23.0843C91.701 23.5061 92.2731 23.7431 92.8697 23.7431H95.119V25.6025L92.5098 28.2417ZM95.119 22.2435H92.8697C92.6708 22.2435 92.4801 22.1645 92.3395 22.0239C92.1989 21.8833 92.1199 21.6926 92.1199 21.4937C92.1199 21.2949 92.1989 21.1042 92.3395 20.9636C92.4801 20.823 92.6708 20.744 92.8697 20.744H95.119V22.2435Z" fill="black"/>
<path d="M50.1327 17.7449H47.1336C46.9347 17.7449 46.744 17.8239 46.6034 17.9645C46.4628 18.1051 46.3838 18.2958 46.3838 18.4946C46.3838 18.6935 46.4628 18.8842 46.6034 19.0248C46.744 19.1654 46.9347 19.2444 47.1336 19.2444H50.1327C50.3315 19.2444 50.5222 19.1654 50.6628 19.0248C50.8035 18.8842 50.8824 18.6935 50.8824 18.4946C50.8824 18.2958 50.8035 18.1051 50.6628 17.9645C50.5222 17.8239 50.3315 17.7449 50.1327 17.7449Z" fill="black"/>
</svg>
