<svg width="24" height="25" viewBox="0 0 24 25" fill="none" xmlns="http://www.w3.org/2000/svg">
<path fill-rule="evenodd" clip-rule="evenodd" d="M18.2041 6.26205C16.5581 4.61505 14.3691 3.70705 12.0371 3.70605C7.23014 3.70605 3.31914 7.61505 3.31814 12.4201C3.31614 13.9491 3.71714 15.4521 4.48114 16.7771L3.24414 21.2931L7.86614 20.0811C9.14514 20.7771 10.5771 21.1421 12.0331 21.1421H12.0371C16.8421 21.1421 20.7531 17.2321 20.7551 12.4271C20.7561 10.0991 19.8501 7.91005 18.2041 6.26205Z" stroke="#0A0A0B" stroke-width="1.5" stroke-linecap="round" stroke-linejoin="round"/>
<path d="M13.0952 14.0599L13.5012 13.6569C13.8742 13.2869 14.4642 13.2399 14.8942 13.5419C15.3102 13.8339 15.6862 14.0959 16.0362 14.3399C16.5922 14.7259 16.6592 15.5179 16.1802 15.9959L15.8212 16.3549" stroke="#0A0A0B" stroke-width="1.5" stroke-linecap="round" stroke-linejoin="round"/>
<path d="M8.14502 8.6789L8.50402 8.3199C8.98202 7.8419 9.77402 7.9089 10.16 8.4639C10.403 8.8139 10.665 9.1899 10.958 9.6059C11.26 10.0359 11.214 10.6259 10.843 10.9989L10.44 11.4049" stroke="#0A0A0B" stroke-width="1.5" stroke-linecap="round" stroke-linejoin="round"/>
<path d="M15.8212 16.3548C14.3402 17.8288 11.8512 16.5768 9.88623 14.6108" stroke="#0A0A0B" stroke-width="1.5" stroke-linecap="round" stroke-linejoin="round"/>
<path d="M9.88807 14.6142C7.92307 12.6482 6.67107 10.1602 8.14507 8.6792" stroke="#0A0A0B" stroke-width="1.5" stroke-linecap="round" stroke-linejoin="round"/>
<path d="M10.4399 11.4048C10.7589 11.9078 11.1679 12.4058 11.6299 12.8678L11.6319 12.8698C12.0939 13.3318 12.5919 13.7408 13.0949 14.0598" stroke="#0A0A0B" stroke-width="1.5" stroke-linecap="round" stroke-linejoin="round"/>
</svg>
