<svg width="24" height="24" viewBox="0 0 24 24" fill="none" xmlns="http://www.w3.org/2000/svg">
<path d="M24 12C24 18.6275 18.6275 24 12 24C5.37246 24 0 18.6275 0 12C0 5.37245 5.37246 0 12 0C18.6275 0 24 5.37245 24 12Z" fill="#D5F0FF"/>
<path d="M11.9569 4.31152C8.24846 4.43171 5.18504 7.43533 4.99962 11.1414C4.93258 12.4774 5.22732 13.7403 5.80051 14.8366L4.99539 18.4424C4.96157 18.6055 5.10592 18.7498 5.26899 18.716L8.8748 17.9109H8.87721C9.9662 18.4798 11.2158 18.7746 12.5422 18.713C16.2422 18.5414 19.2555 15.5016 19.3987 11.8003C19.5605 7.60868 16.1438 4.17562 11.9575 4.31152H11.9569ZM12.1973 17.2296C11.1488 17.2296 10.1667 16.9463 9.32235 16.4516C9.24262 16.4069 9.16592 16.3598 9.09102 16.3097L6.78742 16.9234L7.40107 14.6198C6.81943 13.7253 6.4818 12.6592 6.4818 11.5135C6.4818 8.36245 9.04633 5.79793 12.1973 5.79793C15.3483 5.79793 17.9128 8.36245 17.9128 11.5135C17.9128 14.6644 15.3483 17.229 12.1973 17.229V17.2296Z" fill="#008AD5"/>
<path d="M15.5861 14.0303C15.4864 14.1801 15.3819 14.3196 15.2146 14.4863C14.8486 14.8524 14.34 15.0372 13.8242 14.9846C12.9001 14.8898 11.5871 14.3794 10.4582 13.253C9.32936 12.1242 8.81899 10.8111 8.72658 9.88699C8.67403 9.37118 8.85885 8.86324 9.22486 8.49662C9.39156 8.32992 9.53109 8.22482 9.68088 8.12274C9.9575 7.93611 10.3338 8.06054 10.4383 8.37461L10.817 9.5107C10.9215 9.82236 10.8744 10.0193 10.7397 10.1509L10.4383 10.4553C10.2885 10.6051 10.2637 10.8365 10.3785 11.0158C10.5452 11.2774 10.8593 11.6959 11.4373 12.2739C12.0153 12.852 12.4338 13.166 12.6954 13.3327C12.8748 13.4475 13.1067 13.4227 13.2559 13.2729L13.5603 12.9715C13.6926 12.8369 13.8895 12.7897 14.2005 12.8942L15.3366 13.2729C15.6507 13.3774 15.7751 13.7537 15.5861 14.0303Z" fill="#008AD5"/>
</svg>
