<svg width="167" height="57" viewBox="0 0 167 57" fill="none" xmlns="http://www.w3.org/2000/svg">
<g clip-path="url(#clip0_1274_8799)">
<path d="M156.312 0.5H10.688C4.78518 0.5 0 5.27563 0 11.1667V45.8333C0 51.7244 4.78518 56.5 10.688 56.5H156.312C162.215 56.5 167 51.7244 167 45.8333V11.1667C167 5.27563 162.215 0.5 156.312 0.5Z" fill="black"/>
<path d="M65.7596 33.9827V40.5H64.3702L64.0402 39.044C62.8765 40.3613 61.8171 40.7947 60.3061 40.7947C56.5893 40.7947 54.3662 37.848 54.3662 34.312C54.3662 30.776 56.5893 27.8293 60.3061 27.8293C63.0155 27.8293 65.2907 29.268 65.6207 32.0587H63.5018C63.2934 30.4293 61.8692 29.5973 60.3061 29.5973C57.6488 29.5973 56.5372 31.9373 56.5372 34.312C56.5372 36.6867 57.6488 39.0267 60.3061 39.0267C62.5292 39.0613 63.7449 37.7267 63.7797 35.6293H60.4797V33.9827H65.7596ZM71.9563 39.1827C73.7278 39.1827 74.5094 37.5707 74.5094 36.0107C74.5094 34.468 73.7278 32.856 71.9563 32.856C70.1847 32.856 69.4032 34.468 69.4032 36.0107C69.4032 37.5707 70.1847 39.1827 71.9563 39.1827ZM71.9563 40.7427C69.0732 40.7427 67.4232 38.7667 67.4232 36.0107C67.4232 33.272 69.0732 31.296 71.9563 31.296C74.8393 31.296 76.4893 33.272 76.4893 36.0107C76.4893 38.7667 74.8393 40.7427 71.9563 40.7427ZM82.2516 39.1827C84.0231 39.1827 84.8047 37.5707 84.8047 36.0107C84.8047 34.468 84.0231 32.856 82.2516 32.856C80.4801 32.856 79.6985 34.468 79.6985 36.0107C79.6985 37.5707 80.4801 39.1827 82.2516 39.1827ZM82.2516 40.7427C79.3685 40.7427 77.7186 38.7667 77.7186 36.0107C77.7186 33.272 79.3685 31.296 82.2516 31.296C85.1347 31.296 86.7847 33.272 86.7847 36.0107C86.7847 38.7667 85.1347 40.7427 82.2516 40.7427ZM92.3384 38.94C94.0926 38.94 94.7526 37.3453 94.7526 35.82C94.7526 34.2773 94.0578 32.856 92.3384 32.856C90.5842 32.856 89.9764 34.4853 89.9764 35.976C89.9764 37.4493 90.6884 38.94 92.3384 38.94ZM96.7325 31.5387V40.032C96.7325 42.7187 95.152 44.0533 92.321 44.0533C90.5148 44.0533 88.4827 43.36 88.309 41.2627H90.289C90.5321 42.3893 91.4353 42.58 92.4426 42.58C94.0405 42.58 94.7526 41.7653 94.7526 40.292V38.9227H94.7178C94.162 39.9107 93.1373 40.5 92.0258 40.5C89.1774 40.5 87.9964 38.3507 87.9964 35.7853C87.9964 33.376 89.5074 31.296 92.0605 31.296C93.1894 31.296 94.2141 31.764 94.7178 32.7693H94.7526V31.5387H96.7325ZM98.7781 40.5V28.124H100.758V40.5H98.7781ZM111.061 36.5307H104.461C104.461 37.9347 105.225 39.1827 106.875 39.1827C108.021 39.1827 108.716 38.68 109.064 37.692H110.939C110.505 39.6507 108.838 40.7427 106.875 40.7427C104.062 40.7427 102.481 38.784 102.481 36.028C102.481 33.48 104.148 31.296 106.823 31.296C109.654 31.296 111.391 33.844 111.061 36.5307ZM104.461 35.2307H109.081C109.011 33.9827 108.16 32.856 106.823 32.856C105.451 32.856 104.513 33.896 104.461 35.2307ZM119.849 29.892V33.9827H123.027C124 33.9827 125.198 33.4973 125.198 31.9373C125.198 30.308 124.208 29.892 123.062 29.892H119.849ZM117.678 40.5V28.124H123.149C126.692 28.124 127.369 30.412 127.369 31.9547C127.369 33.48 126.692 35.768 123.149 35.7507H119.849V40.5H117.678ZM129.036 40.5V28.124H131.016V40.5H129.036ZM138.714 37.484V36.0107C138.106 36.4093 137.151 36.392 136.283 36.548C135.432 36.6867 134.667 36.9987 134.667 38.0387C134.667 38.9227 135.796 39.1827 136.491 39.1827C137.359 39.1827 138.714 38.732 138.714 37.484ZM140.694 33.896V38.5067C140.694 38.992 140.798 39.1827 141.163 39.1827C141.285 39.1827 141.441 39.1827 141.649 39.148V40.5173C141.354 40.6213 140.729 40.7427 140.399 40.7427C139.6 40.7427 139.027 40.4653 138.87 39.6507C138.089 40.4133 136.821 40.7427 135.762 40.7427C134.146 40.7427 132.687 39.876 132.687 38.1253C132.687 35.8893 134.476 35.5253 136.144 35.3347C137.568 35.0747 138.836 35.2307 138.836 34.0693C138.836 33.0467 137.776 32.856 136.977 32.856C135.866 32.856 135.084 33.3067 134.997 34.2773H133.017C133.156 31.972 135.119 31.296 137.099 31.296C138.853 31.296 140.694 32.0067 140.694 33.896ZM145.239 40.4653L141.835 31.5387H144.006L146.351 38.2293H146.385L148.661 31.5387H150.727L147.237 40.9853C146.594 42.5973 146.125 44.0533 144.058 44.0533C143.589 44.0533 143.138 44.0187 142.686 43.9493V42.2853C142.999 42.3373 143.311 42.4067 143.624 42.4067C144.544 42.4067 144.77 41.9213 145.013 41.1587L145.239 40.4653Z" fill="white"/>
<mask id="mask0_1274_8799" style="mask-type:luminance" maskUnits="userSpaceOnUse" x="12" y="12" width="33" height="36">
<path d="M44.0884 12.5H12.0244V47.1667H44.0884V12.5Z" fill="white"/>
</mask>
<g mask="url(#mask0_1274_8799)">
<path d="M26.9985 29.0266L12.1572 44.2341C12.3239 44.8117 12.6234 45.3445 13.0328 45.7915C13.4422 46.2386 13.9508 46.5882 14.5196 46.8137C15.0885 47.0391 15.7023 47.1343 16.3145 47.0922C16.9267 47.0499 17.5209 46.8714 18.0517 46.5702L34.7509 37.2685L26.9985 29.0266Z" fill="#EA4335"/>
<path d="M42.006 26.4418L34.7847 22.3965L26.6562 29.3726L34.8177 37.2468L41.984 33.2448C42.6189 32.9197 43.1506 32.4308 43.5218 31.8312C43.8928 31.2316 44.0889 30.5441 44.0889 29.8432C44.0889 29.1424 43.8928 28.4549 43.5218 27.8553C43.1506 27.2557 42.6189 26.7668 41.984 26.4417L42.006 26.4418Z" fill="#FBBC04"/>
<path d="M12.1572 15.377C12.0675 15.7014 12.0229 16.036 12.0245 16.372V43.239C12.0254 43.5748 12.07 43.9092 12.1572 44.2342L27.5073 29.4162L12.1572 15.377Z" fill="#4285F4"/>
<path d="M27.1091 29.8056L34.7842 22.3967L18.1071 13.0516C17.4796 12.6922 16.7659 12.5019 16.0389 12.5C14.2343 12.4966 12.648 13.6679 12.1572 15.3663L27.1091 29.8056Z" fill="#34A853"/>
</g>
<path d="M61.4957 17.8226V21.8332H60.6407L60.4376 20.9372C59.7215 21.7479 59.0695 22.0146 58.1397 22.0146C55.8524 22.0146 54.4844 20.2012 54.4844 18.0252C54.4844 15.8492 55.8524 14.0359 58.1397 14.0359C59.807 14.0359 61.2071 14.9212 61.4102 16.6386H60.1063C59.978 15.6359 59.1016 15.1239 58.1397 15.1239C56.5044 15.1239 55.8204 16.5639 55.8204 18.0252C55.8204 19.4866 56.5044 20.9266 58.1397 20.9266C59.5077 20.9479 60.2559 20.1266 60.2773 18.8359H58.2465V17.8226H61.4957ZM62.947 21.8332V14.2172H68.4406V15.3692H64.283V17.3639H68.1307V18.4519H64.283V20.6812H68.5154V21.8332H62.947ZM68.9525 15.3692V14.2172H75.1301V15.3692H72.7039V21.8332H71.3679V15.3692H68.9525ZM78.9894 21.8332V14.2172H80.3254V21.8332H78.9894ZM81.2374 15.3692V14.2172H87.415V15.3692H84.9889V21.8332H83.6529V15.3692H81.2374ZM94.5235 14.0359C96.8107 14.0359 98.1788 15.8492 98.1788 18.0252C98.1788 20.2012 96.8107 22.0146 94.5235 22.0146C92.2363 22.0146 90.8682 20.2012 90.8682 18.0252C90.8682 15.8492 92.2363 14.0359 94.5235 14.0359ZM94.5235 15.1239C92.8882 15.1239 92.2042 16.5639 92.2042 18.0252C92.2042 19.4866 92.8882 20.9266 94.5235 20.9266C96.1588 20.9266 96.8428 19.4866 96.8428 18.0252C96.8428 16.5639 96.1588 15.1239 94.5235 15.1239ZM99.3414 21.8332V14.2172H100.752L104.236 19.8279H104.258V14.2172H105.53V21.8332H104.119L100.645 16.2332H100.613V21.8332H99.3414Z" fill="white"/>
</g>
<defs>
<clipPath id="clip0_1274_8799">
<rect width="167" height="56" fill="white" transform="translate(0 0.5)"/>
</clipPath>
</defs>
</svg>
